<svg width="156" height="186" viewBox="0 0 156 186" fill="none" xmlns="http://www.w3.org/2000/svg">
<g id="&#208;&#161;&#209;&#132;&#208;&#181;&#209;&#128;&#209;&#139; &#208;&#191;&#209;&#128;&#208;&#190;&#208;&#184;&#208;&#183;&#208;&#178;&#208;&#190;&#208;&#180;&#209;&#129;&#209;&#130;&#208;&#178;&#208;&#176;">
<g id="Group 31" style="mix-blend-mode:plus-darker" opacity="0.2">
<rect id="Rectangle 976" width="6" height="6" fill="#D9D9D9"/>
<rect id="Rectangle 984" x="20" width="6" height="6" fill="#D9D9D9"/>
<rect id="Rectangle 980" x="10" width="6" height="6" fill="#D9D9D9"/>
<rect id="Rectangle 985" x="30" width="6" height="6" fill="#D9D9D9"/>
<rect id="Rectangle 977" y="12" width="6" height="6" fill="#D9D9D9"/>
<rect id="Rectangle 986" x="20" y="12" width="6" height="6" fill="#D9D9D9"/>
<rect id="Rectangle 981" x="10" y="12" width="6" height="6" fill="#D9D9D9"/>
<rect id="Rectangle 987" x="30" y="12" width="6" height="6" fill="#D9D9D9"/>
<rect id="Rectangle 978" y="24" width="6" height="6" fill="#D9D9D9"/>
<rect id="Rectangle 988" x="20" y="24" width="6" height="6" fill="#D9D9D9"/>
<rect id="Rectangle 982" x="10" y="24" width="6" height="6" fill="#D9D9D9"/>
<rect id="Rectangle 989" x="30" y="24" width="6" height="6" fill="#D9D9D9"/>
<rect id="Rectangle 979" y="36" width="6" height="6" fill="#D9D9D9"/>
<rect id="Rectangle 990" x="20" y="36" width="6" height="6" fill="#D9D9D9"/>
<rect id="Rectangle 983" x="10" y="36" width="6" height="6" fill="#D9D9D9"/>
<rect id="Rectangle 991" x="30" y="36" width="6" height="6" fill="#D9D9D9"/>
<rect id="Rectangle 992" y="48" width="6" height="6" fill="#D9D9D9"/>
<rect id="Rectangle 993" x="20" y="48" width="6" height="6" fill="#D9D9D9"/>
<rect id="Rectangle 994" x="10" y="48" width="6" height="6" fill="#D9D9D9"/>
<rect id="Rectangle 995" x="30" y="48" width="6" height="6" fill="#D9D9D9"/>
<rect id="Rectangle 996" y="60" width="6" height="6" fill="#D9D9D9"/>
<rect id="Rectangle 997" x="20" y="60" width="6" height="6" fill="#D9D9D9"/>
<rect id="Rectangle 998" x="10" y="60" width="6" height="6" fill="#D9D9D9"/>
<rect id="Rectangle 999" x="30" y="60" width="6" height="6" fill="#D9D9D9"/>
<rect id="Rectangle 1000" y="72" width="6" height="6" fill="#D9D9D9"/>
<rect id="Rectangle 1001" x="20" y="72" width="6" height="6" fill="#D9D9D9"/>
<rect id="Rectangle 1002" x="10" y="72" width="6" height="6" fill="#D9D9D9"/>
<rect id="Rectangle 1003" x="30" y="72" width="6" height="6" fill="#D9D9D9"/>
<rect id="Rectangle 1004" y="84" width="6" height="6" fill="#D9D9D9"/>
<rect id="Rectangle 1005" x="20" y="84" width="6" height="6" fill="#D9D9D9"/>
<rect id="Rectangle 1006" x="10" y="84" width="6" height="6" fill="#D9D9D9"/>
<rect id="Rectangle 1007" x="30" y="84" width="6" height="6" fill="#D9D9D9"/>
<rect id="Rectangle 1008" x="40" width="6" height="6" fill="#D9D9D9"/>
<rect id="Rectangle 1009" x="60" width="6" height="6" fill="#D9D9D9"/>
<rect id="Rectangle 1010" x="50" width="6" height="6" fill="#D9D9D9"/>
<rect id="Rectangle 1011" x="70" width="6" height="6" fill="#D9D9D9"/>
<rect id="Rectangle 1012" x="40" y="12" width="6" height="6" fill="#D9D9D9"/>
<rect id="Rectangle 1013" x="60" y="12" width="6" height="6" fill="#D9D9D9"/>
<rect id="Rectangle 1014" x="50" y="12" width="6" height="6" fill="#D9D9D9"/>
<rect id="Rectangle 1015" x="70" y="12" width="6" height="6" fill="#D9D9D9"/>
<rect id="Rectangle 1016" x="40" y="24" width="6" height="6" fill="#D9D9D9"/>
<rect id="Rectangle 1017" x="60" y="24" width="6" height="6" fill="#D9D9D9"/>
<rect id="Rectangle 1018" x="50" y="24" width="6" height="6" fill="#D9D9D9"/>
<rect id="Rectangle 1019" x="70" y="24" width="6" height="6" fill="#D9D9D9"/>
<rect id="Rectangle 1020" x="40" y="36" width="6" height="6" fill="#D9D9D9"/>
<rect id="Rectangle 1021" x="60" y="36" width="6" height="6" fill="#D9D9D9"/>
<rect id="Rectangle 1022" x="50" y="36" width="6" height="6" fill="#D9D9D9"/>
<rect id="Rectangle 1023" x="70" y="36" width="6" height="6" fill="#D9D9D9"/>
<rect id="Rectangle 1024" x="40" y="48" width="6" height="6" fill="#D9D9D9"/>
<rect id="Rectangle 1025" x="60" y="48" width="6" height="6" fill="#D9D9D9"/>
<rect id="Rectangle 1026" x="50" y="48" width="6" height="6" fill="#D9D9D9"/>
<rect id="Rectangle 1027" x="70" y="48" width="6" height="6" fill="#D9D9D9"/>
<rect id="Rectangle 1028" x="40" y="60" width="6" height="6" fill="#D9D9D9"/>
<rect id="Rectangle 1029" x="60" y="60" width="6" height="6" fill="#D9D9D9"/>
<rect id="Rectangle 1030" x="50" y="60" width="6" height="6" fill="#D9D9D9"/>
<rect id="Rectangle 1031" x="70" y="60" width="6" height="6" fill="#D9D9D9"/>
<rect id="Rectangle 1032" x="40" y="72" width="6" height="6" fill="#D9D9D9"/>
<rect id="Rectangle 1033" x="60" y="72" width="6" height="6" fill="#D9D9D9"/>
<rect id="Rectangle 1034" x="50" y="72" width="6" height="6" fill="#D9D9D9"/>
<rect id="Rectangle 1035" x="70" y="72" width="6" height="6" fill="#D9D9D9"/>
<rect id="Rectangle 1036" x="40" y="84" width="6" height="6" fill="#D9D9D9"/>
<rect id="Rectangle 1037" x="60" y="84" width="6" height="6" fill="#D9D9D9"/>
<rect id="Rectangle 1038" x="50" y="84" width="6" height="6" fill="#D9D9D9"/>
<rect id="Rectangle 1039" x="70" y="84" width="6" height="6" fill="#D9D9D9"/>
<rect id="Rectangle 1040" y="96" width="6" height="6" fill="#D9D9D9"/>
<rect id="Rectangle 1041" x="20" y="96" width="6" height="6" fill="#D9D9D9"/>
<rect id="Rectangle 1042" x="10" y="96" width="6" height="6" fill="#D9D9D9"/>
<rect id="Rectangle 1043" x="30" y="96" width="6" height="6" fill="#D9D9D9"/>
<rect id="Rectangle 1044" y="108" width="6" height="6" fill="#D9D9D9"/>
<rect id="Rectangle 1045" x="20" y="108" width="6" height="6" fill="#D9D9D9"/>
<rect id="Rectangle 1046" x="10" y="108" width="6" height="6" fill="#D9D9D9"/>
<rect id="Rectangle 1047" x="30" y="108" width="6" height="6" fill="#D9D9D9"/>
<rect id="Rectangle 1048" y="120" width="6" height="6" fill="#D9D9D9"/>
<rect id="Rectangle 1049" x="20" y="120" width="6" height="6" fill="#D9D9D9"/>
<rect id="Rectangle 1050" x="10" y="120" width="6" height="6" fill="#D9D9D9"/>
<rect id="Rectangle 1051" x="30" y="120" width="6" height="6" fill="#D9D9D9"/>
<rect id="Rectangle 1052" y="132" width="6" height="6" fill="#D9D9D9"/>
<rect id="Rectangle 1053" x="20" y="132" width="6" height="6" fill="#D9D9D9"/>
<rect id="Rectangle 1054" x="10" y="132" width="6" height="6" fill="#D9D9D9"/>
<rect id="Rectangle 1055" x="30" y="132" width="6" height="6" fill="#D9D9D9"/>
<rect id="Rectangle 1056" y="144" width="6" height="6" fill="#D9D9D9"/>
<rect id="Rectangle 1057" x="20" y="144" width="6" height="6" fill="#D9D9D9"/>
<rect id="Rectangle 1058" x="10" y="144" width="6" height="6" fill="#D9D9D9"/>
<rect id="Rectangle 1059" x="30" y="144" width="6" height="6" fill="#D9D9D9"/>
<rect id="Rectangle 1060" y="156" width="6" height="6" fill="#D9D9D9"/>
<rect id="Rectangle 1061" x="20" y="156" width="6" height="6" fill="#D9D9D9"/>
<rect id="Rectangle 1062" x="10" y="156" width="6" height="6" fill="#D9D9D9"/>
<rect id="Rectangle 1063" x="30" y="156" width="6" height="6" fill="#D9D9D9"/>
<rect id="Rectangle 1064" y="168" width="6" height="6" fill="#D9D9D9"/>
<rect id="Rectangle 1065" x="20" y="168" width="6" height="6" fill="#D9D9D9"/>
<rect id="Rectangle 1066" x="10" y="168" width="6" height="6" fill="#D9D9D9"/>
<rect id="Rectangle 1067" x="30" y="168" width="6" height="6" fill="#D9D9D9"/>
<rect id="Rectangle 1068" y="180" width="6" height="6" fill="#D9D9D9"/>
<rect id="Rectangle 1069" x="20" y="180" width="6" height="6" fill="#D9D9D9"/>
<rect id="Rectangle 1070" x="10" y="180" width="6" height="6" fill="#D9D9D9"/>
<rect id="Rectangle 1071" x="30" y="180" width="6" height="6" fill="#D9D9D9"/>
<rect id="Rectangle 1072" x="40" y="96" width="6" height="6" fill="#D9D9D9"/>
<rect id="Rectangle 1073" x="60" y="96" width="6" height="6" fill="#D9D9D9"/>
<rect id="Rectangle 1074" x="50" y="96" width="6" height="6" fill="#D9D9D9"/>
<rect id="Rectangle 1075" x="70" y="96" width="6" height="6" fill="#D9D9D9"/>
<rect id="Rectangle 1076" x="40" y="108" width="6" height="6" fill="#D9D9D9"/>
<rect id="Rectangle 1077" x="60" y="108" width="6" height="6" fill="#D9D9D9"/>
<rect id="Rectangle 1078" x="50" y="108" width="6" height="6" fill="#D9D9D9"/>
<rect id="Rectangle 1079" x="70" y="108" width="6" height="6" fill="#D9D9D9"/>
<rect id="Rectangle 1080" x="40" y="120" width="6" height="6" fill="#D9D9D9"/>
<rect id="Rectangle 1081" x="60" y="120" width="6" height="6" fill="#D9D9D9"/>
<rect id="Rectangle 1082" x="50" y="120" width="6" height="6" fill="#D9D9D9"/>
<rect id="Rectangle 1083" x="70" y="120" width="6" height="6" fill="#D9D9D9"/>
<rect id="Rectangle 1084" x="40" y="132" width="6" height="6" fill="#D9D9D9"/>
<rect id="Rectangle 1085" x="60" y="132" width="6" height="6" fill="#D9D9D9"/>
<rect id="Rectangle 1086" x="50" y="132" width="6" height="6" fill="#D9D9D9"/>
<rect id="Rectangle 1087" x="70" y="132" width="6" height="6" fill="#D9D9D9"/>
<rect id="Rectangle 1088" x="40" y="144" width="6" height="6" fill="#D9D9D9"/>
<rect id="Rectangle 1089" x="60" y="144" width="6" height="6" fill="#D9D9D9"/>
<rect id="Rectangle 1090" x="50" y="144" width="6" height="6" fill="#D9D9D9"/>
<rect id="Rectangle 1091" x="70" y="144" width="6" height="6" fill="#D9D9D9"/>
<rect id="Rectangle 1092" x="40" y="156" width="6" height="6" fill="#D9D9D9"/>
<rect id="Rectangle 1093" x="60" y="156" width="6" height="6" fill="#D9D9D9"/>
<rect id="Rectangle 1094" x="50" y="156" width="6" height="6" fill="#D9D9D9"/>
<rect id="Rectangle 1095" x="70" y="156" width="6" height="6" fill="#D9D9D9"/>
<rect id="Rectangle 1096" x="40" y="168" width="6" height="6" fill="#D9D9D9"/>
<rect id="Rectangle 1097" x="60" y="168" width="6" height="6" fill="#D9D9D9"/>
<rect id="Rectangle 1098" x="50" y="168" width="6" height="6" fill="#D9D9D9"/>
<rect id="Rectangle 1099" x="70" y="168" width="6" height="6" fill="#D9D9D9"/>
<rect id="Rectangle 1100" x="40" y="180" width="6" height="6" fill="#D9D9D9"/>
<rect id="Rectangle 1101" x="60" y="180" width="6" height="6" fill="#D9D9D9"/>
<rect id="Rectangle 1102" x="50" y="180" width="6" height="6" fill="#D9D9D9"/>
<rect id="Rectangle 1103" x="70" y="180" width="6" height="6" fill="#D9D9D9"/>
<rect id="Rectangle 1104" x="80" width="6" height="6" fill="#D9D9D9"/>
<rect id="Rectangle 1105" x="100" width="6" height="6" fill="#D9D9D9"/>
<rect id="Rectangle 1106" x="90" width="6" height="6" fill="#D9D9D9"/>
<rect id="Rectangle 1107" x="110" width="6" height="6" fill="#D9D9D9"/>
<rect id="Rectangle 1108" x="80" y="12" width="6" height="6" fill="#D9D9D9"/>
<rect id="Rectangle 1109" x="100" y="12" width="6" height="6" fill="#D9D9D9"/>
<rect id="Rectangle 1110" x="90" y="12" width="6" height="6" fill="#D9D9D9"/>
<rect id="Rectangle 1111" x="110" y="12" width="6" height="6" fill="#D9D9D9"/>
<rect id="Rectangle 1112" x="80" y="24" width="6" height="6" fill="#D9D9D9"/>
<rect id="Rectangle 1113" x="100" y="24" width="6" height="6" fill="#D9D9D9"/>
<rect id="Rectangle 1114" x="90" y="24" width="6" height="6" fill="#D9D9D9"/>
<rect id="Rectangle 1115" x="110" y="24" width="6" height="6" fill="#D9D9D9"/>
<rect id="Rectangle 1116" x="80" y="36" width="6" height="6" fill="#D9D9D9"/>
<rect id="Rectangle 1117" x="100" y="36" width="6" height="6" fill="#D9D9D9"/>
<rect id="Rectangle 1118" x="90" y="36" width="6" height="6" fill="#D9D9D9"/>
<rect id="Rectangle 1119" x="110" y="36" width="6" height="6" fill="#D9D9D9"/>
<rect id="Rectangle 1120" x="80" y="48" width="6" height="6" fill="#D9D9D9"/>
<rect id="Rectangle 1121" x="100" y="48" width="6" height="6" fill="#D9D9D9"/>
<path id="Rectangle 1122" d="M90 48H96V54H90V48Z" fill="#D9D9D9"/>
<rect id="Rectangle 1123" x="110" y="48" width="6" height="6" fill="#D9D9D9"/>
<rect id="Rectangle 1124" x="80" y="60" width="6" height="6" fill="#D9D9D9"/>
<rect id="Rectangle 1125" x="100" y="60" width="6" height="6" fill="#D9D9D9"/>
<rect id="Rectangle 1126" x="90" y="60" width="6" height="6" fill="#D9D9D9"/>
<rect id="Rectangle 1127" x="110" y="60" width="6" height="6" fill="#D9D9D9"/>
<rect id="Rectangle 1128" x="80" y="72" width="6" height="6" fill="#D9D9D9"/>
<rect id="Rectangle 1129" x="100" y="72" width="6" height="6" fill="#D9D9D9"/>
<rect id="Rectangle 1130" x="90" y="72" width="6" height="6" fill="#D9D9D9"/>
<rect id="Rectangle 1131" x="110" y="72" width="6" height="6" fill="#D9D9D9"/>
<rect id="Rectangle 1132" x="80" y="84" width="6" height="6" fill="#D9D9D9"/>
<rect id="Rectangle 1133" x="100" y="84" width="6" height="6" fill="#D9D9D9"/>
<rect id="Rectangle 1134" x="90" y="84" width="6" height="6" fill="#D9D9D9"/>
<rect id="Rectangle 1135" x="110" y="84" width="6" height="6" fill="#D9D9D9"/>
<rect id="Rectangle 1136" x="120" width="6" height="6" fill="#D9D9D9"/>
<rect id="Rectangle 1137" x="140" width="6" height="6" fill="#D9D9D9"/>
<rect id="Rectangle 1138" x="130" width="6" height="6" fill="#D9D9D9"/>
<rect id="Rectangle 1139" x="150" width="6" height="6" fill="#D9D9D9"/>
<rect id="Rectangle 1140" x="120" y="12" width="6" height="6" fill="#D9D9D9"/>
<rect id="Rectangle 1141" x="140" y="12" width="6" height="6" fill="#D9D9D9"/>
<rect id="Rectangle 1142" x="130" y="12" width="6" height="6" fill="#D9D9D9"/>
<rect id="Rectangle 1143" x="150" y="12" width="6" height="6" fill="#D9D9D9"/>
<rect id="Rectangle 1144" x="120" y="24" width="6" height="6" fill="#D9D9D9"/>
<rect id="Rectangle 1145" x="140" y="24" width="6" height="6" fill="#D9D9D9"/>
<rect id="Rectangle 1146" x="130" y="24" width="6" height="6" fill="#D9D9D9"/>
<rect id="Rectangle 1147" x="150" y="24" width="6" height="6" fill="#D9D9D9"/>
<rect id="Rectangle 1148" x="120" y="36" width="6" height="6" fill="#D9D9D9"/>
<rect id="Rectangle 1149" x="140" y="36" width="6" height="6" fill="#D9D9D9"/>
<rect id="Rectangle 1150" x="130" y="36" width="6" height="6" fill="#D9D9D9"/>
<rect id="Rectangle 1151" x="150" y="36" width="6" height="6" fill="#D9D9D9"/>
<rect id="Rectangle 1152" x="120" y="48" width="6" height="6" fill="#D9D9D9"/>
<rect id="Rectangle 1153" x="140" y="48" width="6" height="6" fill="#D9D9D9"/>
<rect id="Rectangle 1154" x="130" y="48" width="6" height="6" fill="#D9D9D9"/>
<rect id="Rectangle 1155" x="150" y="48" width="6" height="6" fill="#D9D9D9"/>
<rect id="Rectangle 1156" x="120" y="60" width="6" height="6" fill="#D9D9D9"/>
<rect id="Rectangle 1157" x="140" y="60" width="6" height="6" fill="#D9D9D9"/>
<rect id="Rectangle 1158" x="130" y="60" width="6" height="6" fill="#D9D9D9"/>
<rect id="Rectangle 1159" x="150" y="60" width="6" height="6" fill="#D9D9D9"/>
<rect id="Rectangle 1160" x="120" y="72" width="6" height="6" fill="#D9D9D9"/>
<rect id="Rectangle 1161" x="140" y="72" width="6" height="6" fill="#D9D9D9"/>
<rect id="Rectangle 1162" x="130" y="72" width="6" height="6" fill="#D9D9D9"/>
<rect id="Rectangle 1163" x="150" y="72" width="6" height="6" fill="#D9D9D9"/>
<rect id="Rectangle 1164" x="120" y="84" width="6" height="6" fill="#D9D9D9"/>
<rect id="Rectangle 1165" x="140" y="84" width="6" height="6" fill="#D9D9D9"/>
<rect id="Rectangle 1166" x="130" y="84" width="6" height="6" fill="#D9D9D9"/>
<rect id="Rectangle 1167" x="150" y="84" width="6" height="6" fill="#D9D9D9"/>
<rect id="Rectangle 1168" x="80" y="96" width="6" height="6" fill="#D9D9D9"/>
<rect id="Rectangle 1169" x="100" y="96" width="6" height="6" fill="#D9D9D9"/>
<rect id="Rectangle 1170" x="90" y="96" width="6" height="6" fill="#D9D9D9"/>
<rect id="Rectangle 1171" x="110" y="96" width="6" height="6" fill="#D9D9D9"/>
<rect id="Rectangle 1172" x="80" y="108" width="6" height="6" fill="#D9D9D9"/>
<rect id="Rectangle 1173" x="100" y="108" width="6" height="6" fill="#D9D9D9"/>
<rect id="Rectangle 1174" x="90" y="108" width="6" height="6" fill="#D9D9D9"/>
<rect id="Rectangle 1175" x="110" y="108" width="6" height="6" fill="#D9D9D9"/>
<rect id="Rectangle 1176" x="80" y="120" width="6" height="6" fill="#D9D9D9"/>
<rect id="Rectangle 1177" x="100" y="120" width="6" height="6" fill="#D9D9D9"/>
<rect id="Rectangle 1178" x="90" y="120" width="6" height="6" fill="#D9D9D9"/>
<rect id="Rectangle 1179" x="110" y="120" width="6" height="6" fill="#D9D9D9"/>
<rect id="Rectangle 1180" x="80" y="132" width="6" height="6" fill="#D9D9D9"/>
<rect id="Rectangle 1181" x="100" y="132" width="6" height="6" fill="#D9D9D9"/>
<rect id="Rectangle 1182" x="90" y="132" width="6" height="6" fill="#D9D9D9"/>
<rect id="Rectangle 1183" x="110" y="132" width="6" height="6" fill="#D9D9D9"/>
<rect id="Rectangle 1184" x="80" y="144" width="6" height="6" fill="#D9D9D9"/>
<rect id="Rectangle 1185" x="100" y="144" width="6" height="6" fill="#D9D9D9"/>
<rect id="Rectangle 1186" x="90" y="144" width="6" height="6" fill="#D9D9D9"/>
<rect id="Rectangle 1187" x="110" y="144" width="6" height="6" fill="#D9D9D9"/>
<rect id="Rectangle 1188" x="80" y="156" width="6" height="6" fill="#D9D9D9"/>
<rect id="Rectangle 1189" x="100" y="156" width="6" height="6" fill="#D9D9D9"/>
<rect id="Rectangle 1190" x="90" y="156" width="6" height="6" fill="#D9D9D9"/>
<rect id="Rectangle 1191" x="110" y="156" width="6" height="6" fill="#D9D9D9"/>
<rect id="Rectangle 1192" x="80" y="168" width="6" height="6" fill="#D9D9D9"/>
<rect id="Rectangle 1193" x="100" y="168" width="6" height="6" fill="#D9D9D9"/>
<rect id="Rectangle 1194" x="90" y="168" width="6" height="6" fill="#D9D9D9"/>
<rect id="Rectangle 1195" x="110" y="168" width="6" height="6" fill="#D9D9D9"/>
<rect id="Rectangle 1196" x="80" y="180" width="6" height="6" fill="#D9D9D9"/>
<rect id="Rectangle 1197" x="100" y="180" width="6" height="6" fill="#D9D9D9"/>
<rect id="Rectangle 1198" x="90" y="180" width="6" height="6" fill="#D9D9D9"/>
<rect id="Rectangle 1199" x="110" y="180" width="6" height="6" fill="#D9D9D9"/>
<rect id="Rectangle 1200" x="120" y="96" width="6" height="6" fill="#D9D9D9"/>
<rect id="Rectangle 1201" x="140" y="96" width="6" height="6" fill="#D9D9D9"/>
<rect id="Rectangle 1202" x="130" y="96" width="6" height="6" fill="#D9D9D9"/>
<rect id="Rectangle 1203" x="150" y="96" width="6" height="6" fill="#D9D9D9"/>
<rect id="Rectangle 1204" x="120" y="108" width="6" height="6" fill="#D9D9D9"/>
<rect id="Rectangle 1205" x="140" y="108" width="6" height="6" fill="#D9D9D9"/>
<rect id="Rectangle 1206" x="130" y="108" width="6" height="6" fill="#D9D9D9"/>
<rect id="Rectangle 1207" x="150" y="108" width="6" height="6" fill="#D9D9D9"/>
<rect id="Rectangle 1208" x="120" y="120" width="6" height="6" fill="#D9D9D9"/>
<rect id="Rectangle 1209" x="140" y="120" width="6" height="6" fill="#D9D9D9"/>
<rect id="Rectangle 1210" x="130" y="120" width="6" height="6" fill="#D9D9D9"/>
<rect id="Rectangle 1211" x="150" y="120" width="6" height="6" fill="#D9D9D9"/>
<rect id="Rectangle 1212" x="120" y="132" width="6" height="6" fill="#D9D9D9"/>
<rect id="Rectangle 1213" x="140" y="132" width="6" height="6" fill="#D9D9D9"/>
<rect id="Rectangle 1214" x="130" y="132" width="6" height="6" fill="#D9D9D9"/>
<rect id="Rectangle 1215" x="150" y="132" width="6" height="6" fill="#D9D9D9"/>
<rect id="Rectangle 1216" x="120" y="144" width="6" height="6" fill="#D9D9D9"/>
<rect id="Rectangle 1217" x="140" y="144" width="6" height="6" fill="#D9D9D9"/>
<rect id="Rectangle 1218" x="130" y="144" width="6" height="6" fill="#D9D9D9"/>
<rect id="Rectangle 1219" x="150" y="144" width="6" height="6" fill="#D9D9D9"/>
<rect id="Rectangle 1220" x="120" y="156" width="6" height="6" fill="#D9D9D9"/>
<rect id="Rectangle 1221" x="140" y="156" width="6" height="6" fill="#D9D9D9"/>
<rect id="Rectangle 1222" x="130" y="156" width="6" height="6" fill="#D9D9D9"/>
<rect id="Rectangle 1223" x="150" y="156" width="6" height="6" fill="#D9D9D9"/>
<rect id="Rectangle 1224" x="120" y="168" width="6" height="6" fill="#D9D9D9"/>
<rect id="Rectangle 1225" x="140" y="168" width="6" height="6" fill="#D9D9D9"/>
<rect id="Rectangle 1226" x="130" y="168" width="6" height="6" fill="#D9D9D9"/>
<rect id="Rectangle 1227" x="150" y="168" width="6" height="6" fill="#D9D9D9"/>
<rect id="Rectangle 1228" x="120" y="180" width="6" height="6" fill="#D9D9D9"/>
<rect id="Rectangle 1229" x="140" y="180" width="6" height="6" fill="#D9D9D9"/>
<rect id="Rectangle 1230" x="130" y="180" width="6" height="6" fill="#D9D9D9"/>
<rect id="Rectangle 1231" x="150" y="180" width="6" height="6" fill="#D9D9D9"/>
</g>
</g>
</svg>
